<?xml version="1.0" encoding="UTF-8" standalone="no"?>
<!-- Created with Inkscape (http://www.inkscape.org/) -->

<svg
   width="210mm"
   height="297mm"
   viewBox="0 0 210 297"
   version="1.1"
   id="svg27816"
   xml:space="preserve"
   inkscape:version="1.2.1 (9c6d41e410, 2022-07-14)"
   sodipodi:docname="game_menu.svg"
   inkscape:export-filename="game_menu.png"
   inkscape:export-xdpi="96"
   inkscape:export-ydpi="96"
   xmlns:inkscape="http://www.inkscape.org/namespaces/inkscape"
   xmlns:sodipodi="http://sodipodi.sourceforge.net/DTD/sodipodi-0.dtd"
   xmlns:xlink="http://www.w3.org/1999/xlink"
   xmlns="http://www.w3.org/2000/svg"
   xmlns:svg="http://www.w3.org/2000/svg"><sodipodi:namedview
     id="namedview27818"
     pagecolor="#ffffff"
     bordercolor="#000000"
     borderopacity="0.25"
     inkscape:showpageshadow="2"
     inkscape:pageopacity="0.0"
     inkscape:pagecheckerboard="0"
     inkscape:deskcolor="#d1d1d1"
     inkscape:document-units="mm"
     showgrid="false"
     inkscape:zoom="0.93539562"
     inkscape:cx="10.156131"
     inkscape:cy="212.74421"
     inkscape:window-width="1366"
     inkscape:window-height="705"
     inkscape:window-x="-8"
     inkscape:window-y="-8"
     inkscape:window-maximized="1"
     inkscape:current-layer="layer1" /><defs
     id="defs27813"><linearGradient
       id="linearGradient1670"
       inkscape:swatch="solid"><stop
         style="stop-color:#e7ceb3;stop-opacity:1;"
         offset="0"
         id="stop1668" /></linearGradient><linearGradient
       id="linearGradient1047"
       inkscape:swatch="solid"><stop
         style="stop-color:#ffffff;stop-opacity:1;"
         offset="0"
         id="stop1045" /></linearGradient><linearGradient
       id="linearGradient1041"
       inkscape:swatch="solid"><stop
         style="stop-color:#2aa72e;stop-opacity:0;"
         offset="0"
         id="stop1039" /></linearGradient><linearGradient
       id="linearGradient1035"
       inkscape:swatch="solid"><stop
         style="stop-color:#928eea;stop-opacity:0.23529412;"
         offset="0"
         id="stop1033" /></linearGradient><linearGradient
       inkscape:collect="always"
       xlink:href="#linearGradient1670"
       id="linearGradient1672"
       x1="8.4666667"
       y1="16.933334"
       x2="25.400121"
       y2="16.933334"
       gradientUnits="userSpaceOnUse" /></defs><g
     inkscape:label="Katman 1"
     inkscape:groupmode="layer"
     id="layer1"><rect
       style="fill:#eee1d1;stroke:#dbcebf;stroke-width:1.30805;stroke-linecap:round;stroke-linejoin:round"
       id="rect27827"
       width="32.55862"
       height="32.55862"
       x="0.65402502"
       y="0.65402454"
       rx="0.50348395"
       ry="1.664844"
       clip-path="none" /><rect
       style="fill:#eee1d1;stroke:#dbcebf;stroke-width:1.84536;stroke-linecap:round;stroke-linejoin:round"
       id="rect27827-2"
       width="65.88797"
       height="32.021305"
       x="0.92268038"
       y="34.789349"
       rx="1.0188864"
       ry="1.5434254"
       clip-path="none" /><text
       xml:space="preserve"
       style="font-size:8.74296px;font-family:sans-serif;-inkscape-font-specification:sans-serif;fill:#eee1d1;fill-opacity:1;stroke:#ffffff;stroke-width:1.0928;stroke-linecap:round;stroke-linejoin:round;stroke-dasharray:none;stroke-opacity:1"
       x="1.6178705"
       y="46.769455"
       id="text30203-7-5"
       transform="scale(1.1013607,0.90796773)"><tspan
         sodipodi:role="line"
         id="tspan30201-5-1"
         style="font-size:8.74296px;stroke:#ffffff;stroke-width:1.0928;stroke-dasharray:none;stroke-opacity:1"
         x="1.6178705"
         y="46.769455">SCORE</tspan></text><path
       style="fill:#eee1d1;fill-opacity:1;stroke:url(#linearGradient1672);stroke-width:1.49595417;stroke-linecap:round;stroke-linejoin:round;stroke-dasharray:none;stroke-opacity:1"
       d="M 11.803339,20.795349 V 16.740235 H 10.409732 9.0161261 l 3.7758909,-3.862017 c 2.076736,-2.124108 3.940359,-3.8620164 4.141377,-3.8620164 0.20102,0 2.06464,1.7379084 4.141381,3.8620164 l 3.775887,3.862017 h -1.393606 -1.393608 v 4.055114 4.055118 h -1.50148 -1.501477 v -2.70341 -2.703412 h -2.127097 -2.127095 v 2.703412 2.70341 H 13.30482 11.803339 Z"
       id="path27981"
       clip-path="none" /><rect
       style="fill:#eee1d1;stroke:#dbcebf;stroke-width:1.30805;stroke-linecap:round;stroke-linejoin:round"
       id="rect27827-0"
       width="32.55862"
       height="32.55862"
       x="34.520691"
       y="0.65402359"
       rx="0.50348395"
       ry="1.5151649"
       clip-path="none" /><g
       id="g29347"
       transform="matrix(0.39781691,0,0,0.36177565,14.668891,7.3012123)"
       style="stroke-width:2.97519;stroke-dasharray:none"
       clip-path="none"><path
         style="fill:#eee1d1;fill-opacity:1;stroke:#e7ceb3;stroke-width:2.97519;stroke-linecap:round;stroke-linejoin:round;stroke-dasharray:none;stroke-opacity:1"
         d="m 73.349329,22.033733 c -0.641419,-0.176455 -1.688416,-1.071991 -2.017926,-1.726005 -0.548049,-1.087775 -0.385689,-2.154551 0.631528,-4.149425 2.289755,-4.490465 6.436492,-8.2530897 11.06726,-10.0421001 4.408175,-1.7030154 9.804378,-1.8586131 14.138582,-0.4076813 1.826967,0.6115993 5.093537,2.4127556 6.484837,3.5756715 0.75561,0.6315693 1.47408,1.2270179 1.59661,1.3232179 0.14435,0.113333 0.52516,-0.267523 1.08165,-1.0817983 1.03033,-1.507595 1.66841,-1.8425109 2.41729,-1.2687875 l 0.51548,0.3949124 0.0533,6.3285794 0.0533,6.328579 -0.53453,0.431557 c -0.76036,0.613888 -0.54634,0.6595 -3.80934,-0.811821 -8.08671,-3.646424 -8.776973,-4.02821 -8.776973,-4.85455 0,-0.64899 0.722645,-1.163766 1.963058,-1.398385 1.496724,-0.283096 1.449425,-0.429916 -0.498707,-1.548119 -2.342897,-1.344799 -4.022937,-1.772056 -7.013069,-1.783518 -2.894038,-0.0111 -4.104354,0.238224 -6.318097,1.301495 -3.150736,1.513315 -5.406503,3.839994 -7.100488,7.323698 -0.269376,0.553976 -0.773536,1.229376 -1.120357,1.50089 -0.633966,0.496307 -2.036598,0.777289 -2.813398,0.56359 z"
         id="path29341" /><path
         style="fill:#eee1d1;fill-opacity:1;stroke:#e7ceb3;stroke-width:2.97519;stroke-linecap:round;stroke-linejoin:round;stroke-dasharray:none;stroke-opacity:1"
         d="m 88.683955,46.794752 c -3.881977,-0.267629 -8.191135,-2.009331 -11.17973,-4.518694 -0.620776,-0.521233 -1.280506,-1.069643 -1.466066,-1.218687 -0.297134,-0.238664 -0.437274,-0.120015 -1.174712,0.994568 -1.002143,1.514661 -1.655444,1.862472 -2.411041,1.283611 l -0.515478,-0.394905 -0.05349,-6.17043 c -0.05776,-6.662161 -0.0121,-6.988025 1.015987,-7.25287 0.311791,-0.08032 2.148338,0.651352 5.89287,2.34769 5.995019,2.715849 6.521014,3.081936 5.948489,4.140104 -0.241277,0.445941 -0.559933,0.620355 -1.564285,0.856195 -0.698502,0.164024 -1.229914,0.395036 -1.190982,0.51774 0.136658,0.430709 2.685388,1.792548 4.378069,2.339294 1.48704,0.480322 2.050376,0.55283 4.237199,0.545377 2.788663,-0.0095 4.057718,-0.279718 6.242915,-1.329273 2.881298,-1.383899 5.25593,-3.748049 6.76427,-6.734414 1.05001,-2.078939 1.78784,-2.669248 3.33629,-2.669248 0.94715,0 1.27991,0.101726 1.88671,0.576768 1.64118,1.284818 1.75618,2.668684 0.43924,5.28566 -1.76096,3.499296 -5.03953,6.924723 -8.42143,8.798619 -3.882125,2.151078 -7.497535,2.924662 -12.164825,2.602895 z"
         id="path29343" /></g><rect
       style="fill:#eee1d1;stroke:#dbcebf;stroke-width:1.84536;stroke-linecap:round;stroke-linejoin:round"
       id="rect27827-2-5"
       width="65.88797"
       height="32.021305"
       x="0.92268002"
       y="68.656013"
       rx="1.0188864"
       ry="1.5434254"
       clip-path="none" /><text
       xml:space="preserve"
       style="font-size:8.88478px;font-family:sans-serif;-inkscape-font-specification:sans-serif;fill:#eee1d1;fill-opacity:1;stroke:#ffffff;stroke-width:1.02452;stroke-linecap:round;stroke-linejoin:round;stroke-dasharray:none;stroke-opacity:1"
       x="2.46662"
       y="80.895073"
       id="text30203-7"
       transform="scale(1.0526408,0.94999166)"><tspan
         sodipodi:role="line"
         id="tspan30201-5"
         style="font-size:8.88478px;stroke:#ffffff;stroke-width:1.02452;stroke-dasharray:none;stroke-opacity:1"
         x="2.46662"
         y="80.895073">HIGH SCORE</tspan></text></g></svg>
