<?xml version="1.0" encoding="UTF-8" standalone="no"?>
<!-- Created with Inkscape (http://www.inkscape.org/) -->

<svg
   width="1122.5197"
   height="793.70081"
   viewBox="0 0 296.99998 210"
   version="1.1"
   id="svg5"
   xml:space="preserve"
   inkscape:version="1.2.1 (9c6d41e410, 2022-07-14)"
   sodipodi:docname="menu_main.svg"
   xmlns:inkscape="http://www.inkscape.org/namespaces/inkscape"
   xmlns:sodipodi="http://sodipodi.sourceforge.net/DTD/sodipodi-0.dtd"
   xmlns:xlink="http://www.w3.org/1999/xlink"
   xmlns="http://www.w3.org/2000/svg"
   xmlns:svg="http://www.w3.org/2000/svg"><sodipodi:namedview
     id="namedview7"
     pagecolor="#ffffff"
     bordercolor="#000000"
     borderopacity="0.25"
     inkscape:showpageshadow="2"
     inkscape:pageopacity="0.0"
     inkscape:pagecheckerboard="0"
     inkscape:deskcolor="#d1d1d1"
     inkscape:document-units="mm"
     showgrid="false"
     inkscape:zoom="0.93539562"
     inkscape:cx="247.48886"
     inkscape:cy="471.45827"
     inkscape:window-width="1920"
     inkscape:window-height="1017"
     inkscape:window-x="1358"
     inkscape:window-y="-8"
     inkscape:window-maximized="1"
     inkscape:current-layer="layer1" /><defs
     id="defs2"><rect
       x="617.92036"
       y="384.86389"
       width="87.663442"
       height="54.522385"
       id="rect26562" /><linearGradient
       id="linearGradient18838"
       inkscape:swatch="solid"><stop
         style="stop-color:#eee1d1;stop-opacity:1;"
         offset="0"
         id="stop18836" /></linearGradient><linearGradient
       inkscape:collect="always"
       xlink:href="#linearGradient18838"
       id="linearGradient25746"
       gradientUnits="userSpaceOnUse"
       gradientTransform="scale(1.0523479,0.95025599)"
       x1="31.862892"
       y1="95.390578"
       x2="79.657778"
       y2="95.390578" /><linearGradient
       inkscape:collect="always"
       xlink:href="#linearGradient18838"
       id="linearGradient25820"
       gradientUnits="userSpaceOnUse"
       gradientTransform="matrix(1.0523479,0,0,0.95025599,-2.9512804e-6,-1.273164e-6)"
       x1="31.862892"
       y1="95.390579"
       x2="79.657776"
       y2="95.390579" /><linearGradient
       inkscape:collect="always"
       xlink:href="#linearGradient18838"
       id="linearGradient27044"
       gradientUnits="userSpaceOnUse"
       gradientTransform="matrix(1.0523479,0,0,0.95025599,-2.0156125e-6,2.2317253e-6)"
       x1="31.862892"
       y1="95.390579"
       x2="79.657776"
       y2="95.390579" /></defs><g
     inkscape:label="Katman 1"
     inkscape:groupmode="layer"
     id="layer1"><rect
       style="fill:#eee1d1;fill-opacity:1;stroke:#dbcebf;stroke-width:1.53458;stroke-linecap:round;stroke-linejoin:round;stroke-dasharray:none;stroke-dashoffset:0;stroke-opacity:1"
       id="rect27772"
       width="107.48571"
       height="156.13715"
       x="55.157143"
       y="27.719999"
       rx="0.84857166"
       ry="3.5597682" /><text
       xml:space="preserve"
       style="font-size:3.175px;fill:#000080;stroke:#2f5567;stroke-width:1.63724;stroke-linecap:round;stroke-linejoin:round;stroke-dasharray:none;stroke-opacity:1"
       x="82.73571"
       y="155.57143"
       id="text983"><tspan
         sodipodi:role="line"
         id="tspan981"
         style="stroke-width:1.63724"></tspan></text><rect
       style="fill:#bcb0a4;fill-opacity:1;stroke:#dbcebf;stroke-width:2.64583;stroke-linecap:round;stroke-linejoin:round;stroke-dasharray:none;stroke-opacity:1"
       id="rect5850"
       width="57.185257"
       height="26.91954"
       x="78.680946"
       y="44.879524"
       ry="13.45977"
       rx="13.011422" /><text
       xml:space="preserve"
       style="font-style:normal;font-variant:normal;font-weight:normal;font-stretch:normal;font-size:11.2889px;font-family:'Bernard MT Condensed';-inkscape-font-specification:'Bernard MT Condensed, ';fill:#d45500;fill-opacity:1;stroke:#e43236;stroke-width:2.64583;stroke-linecap:round;stroke-linejoin:round;stroke-dasharray:none;stroke-opacity:1"
       x="106.63715"
       y="119.93143"
       id="text16702"><tspan
         sodipodi:role="line"
         id="tspan16700"
         style="fill:#d44800;fill-opacity:1;stroke-width:2.64583"
         x="106.63715"
         y="119.93143" /></text><text
       xml:space="preserve"
       style="font-style:normal;font-variant:normal;font-weight:normal;font-stretch:normal;font-size:16.9333px;font-family:'Britannic Bold';-inkscape-font-specification:'Britannic Bold, ';writing-mode:tb-rl;fill:#008000;fill-opacity:1;stroke:#4a2526;stroke-width:2.64583;stroke-linecap:round;stroke-linejoin:round;stroke-dasharray:none;stroke-opacity:1"
       x="34.225712"
       y="65.339996"
       id="text18002"><tspan
         sodipodi:role="line"
         id="tspan18000"
         style="stroke-width:2.64583"
         x="34.225712"
         y="65.339996" /></text><text
       xml:space="preserve"
       style="font-style:normal;font-variant:normal;font-weight:normal;font-stretch:normal;font-size:12.3472px;line-height:5.2;font-family:'Berlin Sans FB Demi';-inkscape-font-specification:'Berlin Sans FB Demi';letter-spacing:0.846667px;writing-mode:lr-tb;fill:#000000;fill-opacity:0;stroke:url(#linearGradient25746);stroke-width:1.53458;stroke-linecap:round;stroke-linejoin:round;stroke-dasharray:none;stroke-dashoffset:0;stroke-opacity:1"
       x="68.270401"
       y="77.595276"
       id="text18006"
       transform="scale(1.2705307,0.78707268)"><tspan
         sodipodi:role="line"
         id="tspan18004"
         style="font-style:normal;font-variant:normal;font-weight:normal;font-stretch:normal;font-size:12.3472px;font-family:sans-serif;-inkscape-font-specification:sans-serif;writing-mode:lr-tb;baseline-shift:baseline;fill:#000000;fill-opacity:0;stroke:url(#linearGradient25746);stroke-width:1.53458;stroke-dasharray:none;stroke-dashoffset:0;stroke-opacity:1"
         x="68.270401"
         y="77.595276">PLAY</tspan></text><rect
       style="fill:#bcb0a4;fill-opacity:1;stroke:#dbcebf;stroke-width:2.64583;stroke-linecap:round;stroke-linejoin:round;stroke-dasharray:none;stroke-opacity:1"
       id="rect5850-4"
       width="57.185257"
       height="26.91954"
       x="79.458801"
       y="124.0088"
       ry="13.45977"
       rx="13.011422" /><text
       xml:space="preserve"
       style="font-style:normal;font-variant:normal;font-weight:normal;font-stretch:normal;font-size:12.3472px;line-height:5.2;font-family:'Berlin Sans FB Demi';-inkscape-font-specification:'Berlin Sans FB Demi';letter-spacing:0.846667px;writing-mode:lr-tb;fill:#000000;fill-opacity:0;stroke:url(#linearGradient27044);stroke-width:1.53458;stroke-linecap:round;stroke-linejoin:round;stroke-dasharray:none;stroke-dashoffset:0;stroke-opacity:1"
       x="68.882622"
       y="178.13144"
       id="text18006-6"
       transform="scale(1.2705307,0.78707268)"><tspan
         sodipodi:role="line"
         id="tspan18004-2"
         style="font-style:normal;font-variant:normal;font-weight:normal;font-stretch:normal;font-size:12.3472px;font-family:sans-serif;-inkscape-font-specification:sans-serif;writing-mode:lr-tb;baseline-shift:baseline;fill:#000000;fill-opacity:0;stroke:url(#linearGradient27044);stroke-width:1.53458;stroke-dasharray:none;stroke-dashoffset:0;stroke-opacity:1"
         x="68.882622"
         y="178.13144">EXIT</tspan></text><rect
       style="fill:#bcb0a4;fill-opacity:1;stroke:#dbcebf;stroke-width:2.64583;stroke-linecap:round;stroke-linejoin:round;stroke-dasharray:none;stroke-opacity:1"
       id="rect5850-4-0"
       width="57.185257"
       height="26.91954"
       x="78.32737"
       y="84.408806"
       ry="13.45977"
       rx="13.011422" /><text
       xml:space="preserve"
       style="font-style:normal;font-variant:normal;font-weight:normal;font-stretch:normal;font-size:12.3472px;line-height:5.2;font-family:'Berlin Sans FB Demi';-inkscape-font-specification:'Berlin Sans FB Demi';letter-spacing:0.846667px;writing-mode:lr-tb;fill:#000000;fill-opacity:0;stroke:url(#linearGradient25820);stroke-width:1.53458;stroke-linecap:round;stroke-linejoin:round;stroke-dasharray:none;stroke-dashoffset:0;stroke-opacity:1"
       x="70.441032"
       y="191.06908"
       id="text18006-6-0"
       transform="scale(1.2705307,0.78707268)"><tspan
         sodipodi:role="line"
         id="tspan18004-2-5"
         style="font-style:normal;font-variant:normal;font-weight:normal;font-stretch:normal;font-size:12.3472px;font-family:sans-serif;-inkscape-font-specification:sans-serif;writing-mode:lr-tb;baseline-shift:baseline;fill:#000000;fill-opacity:0;stroke:url(#linearGradient25820);stroke-width:1.53458;stroke-dasharray:none;stroke-dashoffset:0;stroke-opacity:1"
         x="70.441032"
         y="191.06908" /></text><text
       xml:space="preserve"
       transform="scale(0.26458333)"
       id="text26560"
       style="fill:#000000;stroke:#dbcebf;stroke-opacity:1;stroke-width:5.8;stroke-dasharray:none;stroke-linejoin:round;stroke-linecap:round;font-size:46.66666667px;fill-opacity:0;-inkscape-font-specification:sans-serif;font-family:sans-serif;font-weight:normal;font-style:normal;font-stretch:normal;font-variant:normal;writing-mode:lr-tb;stroke-dashoffset:0;white-space:pre;shape-inside:url(#rect26562)" /><path
       style="fill:#eee1d1;fill-opacity:1;stroke:#dbcebf;stroke-width:1.64057;stroke-linecap:round;stroke-linejoin:round;stroke-dasharray:none;stroke-dashoffset:0;stroke-opacity:1"
       d="m 105.78712,107.76683 c -0.19446,-0.23432 -0.43775,-0.8376 -0.54063,-1.34063 -0.26787,-1.30974 -1.40903,-1.68165 -2.5566,-0.83321 -1.1332,0.83781 -1.78973,0.78083 -2.972907,-0.25801 -1.150774,-1.01039 -1.25879,-1.78003 -0.380966,-2.71443 0.509535,-0.54237 0.570839,-0.79546 0.346993,-1.43251 -0.224824,-0.63983 -0.485849,-0.80246 -1.508103,-0.9396 -1.416532,-0.19004 -2.003481,-0.804389 -2.003481,-2.097013 0,-1.292625 0.586949,-1.906974 2.003481,-2.097011 1.022254,-0.137141 1.283279,-0.299768 1.508103,-0.939602 0.223846,-0.637053 0.162542,-0.890137 -0.346993,-1.432515 -0.877824,-0.934399 -0.769808,-1.704035 0.380966,-2.714429 1.183177,-1.038841 1.839707,-1.095819 2.972907,-0.258008 1.14757,0.848439 2.28873,0.476528 2.5566,-0.833207 0.3027,-1.479998 0.71193,-1.766658 2.52208,-1.766658 1.81015,0 2.21938,0.28666 2.52208,1.766658 0.26787,1.309735 1.40903,1.681646 2.5566,0.833207 1.1332,-0.837811 1.78973,-0.780833 2.97291,0.258008 1.15077,1.010394 1.25879,1.78003 0.38096,2.714429 -0.50953,0.542378 -0.57084,0.795462 -0.34699,1.432515 0.22482,0.639834 0.48585,0.802461 1.5081,0.939602 1.41653,0.190037 2.00348,0.804386 2.00348,2.097011 0,1.292624 -0.58695,1.906973 -2.00348,2.097013 -1.02225,0.13714 -1.28328,0.29977 -1.5081,0.9396 -0.22385,0.63705 -0.16254,0.89014 0.34699,1.43251 0.87783,0.9344 0.76981,1.70404 -0.38096,2.71443 -1.17927,1.03541 -1.85932,1.09603 -3.02044,0.26924 -1.16265,-0.82788 -2.2441,-0.4736 -2.50907,0.82198 -0.3027,1.48 -0.71193,1.76666 -2.52208,1.76666 -1.10489,0 -1.74147,-0.13688 -1.98145,-0.42603 z m 4.53566,-5.58469 c 1.39801,-0.70625 2.43009,-2.0406 2.70283,-3.494413 0.23742,-1.265553 -0.82344,-3.426897 -2.09562,-4.269523 -1.79744,-1.19053 -4.52117,-1.193697 -6.31195,-0.0073 -1.28176,0.849143 -2.34469,3.007222 -2.10651,4.276862 0.43548,2.321324 2.73834,4.130844 5.25704,4.130844 0.78051,0 1.79457,-0.25267 2.55421,-0.63643 z"
       id="path26980" /></g></svg>
